<?xml version="1.0" standalone="no"?>
<!DOCTYPE svg PUBLIC "-//W3C//DTD SVG 20010904//EN"
 "http://www.w3.org/TR/2001/REC-SVG-20010904/DTD/svg10.dtd">
<svg version="1.0" xmlns="http://www.w3.org/2000/svg"
 width="120.000000pt" height="72.000000pt" viewBox="0 0 120.000000 72.000000"
 preserveAspectRatio="xMidYMid meet">

<g transform="translate(0.000000,72.000000) scale(0.100000,-0.100000)"
fill="#000000" stroke="none">
<path d="M30 482 l0 -198 45 -3 44 -2 3 158 3 158 70 -2 c52 -2 73 -7 83 -20
8 -11 12 -60 12 -153 l0 -136 45 -1 c40 -1 46 2 51 23 11 42 -2 277 -16 306
-22 46 -69 60 -212 65 l-128 3 0 -198z"/>
<path d="M430 630 l0 -40 45 0 45 0 0 40 0 40 -45 0 -45 0 0 -40z"/>
<path d="M640 630 l0 -40 45 0 45 0 0 40 0 40 -45 0 -45 0 0 -40z"/>
<path d="M658 493 c12 -2 32 -2 45 0 12 2 2 4 -23 4 -25 0 -35 -2 -22 -4z"/>
<path d="M530 432 c0 -21 2 -41 4 -43 3 -3 23 -3 45 -1 40 4 41 5 41 43 l0 39
-45 0 -45 0 0 -38z"/>
<path d="M750 430 l0 -40 40 0 40 0 0 40 0 40 -40 0 -40 0 0 -40z"/>
<path d="M850 430 c0 -34 3 -40 23 -42 64 -4 62 -5 65 40 l3 42 -45 0 -46 0 0
-40z"/>
<path d="M750 330 l0 -40 40 0 40 0 0 40 0 40 -40 0 -40 0 0 -40z"/>
<path d="M367 187 c-10 -27 8 -82 28 -85 16 -2 17 -1 5 7 -9 7 -13 23 -11 50
2 39 -11 56 -22 28z"/>
<path d="M20 165 c-17 -20 -5 -45 20 -45 11 0 23 7 26 15 6 15 -11 45 -26 45
-4 0 -13 -7 -20 -15z"/>
<path d="M551 171 c-18 -12 -9 -45 13 -49 17 -4 35 12 36 30 0 13 -36 27 -49
19z"/>
<path d="M92 133 c1 -37 1 -37 5 -5 3 24 9 32 24 32 14 0 19 -7 19 -30 0 -16
5 -30 11 -30 6 0 9 14 7 33 -3 28 -7 32 -35 35 -32 3 -33 2 -31 -35z"/>
<path d="M183 154 c-9 -23 10 -49 36 -50 19 -2 19 -1 1 3 -27 6 -25 21 3 26
l22 4 -22 2 c-13 0 -23 5 -23 10 0 5 10 12 23 14 19 4 18 4 -6 6 -17 0 -30 -5
-34 -15z"/>
<path d="M272 153 c2 -10 13 -19 26 -21 31 -5 28 -20 -5 -25 -21 -4 -19 -4 7
-3 42 1 48 27 10 36 -14 4 -24 12 -22 18 1 7 -3 12 -9 12 -6 0 -9 -8 -7 -17z"/>
<path d="M478 163 c23 -9 12 -23 -18 -23 -23 0 -30 -4 -30 -20 0 -16 7 -20 35
-20 33 0 35 2 35 35 0 27 -4 35 -17 34 -11 0 -13 -3 -5 -6z m12 -43 c0 -5 -11
-10 -25 -10 -14 0 -25 5 -25 10 0 6 11 10 25 10 14 0 25 -4 25 -10z"/>
<path d="M641 118 c1 -29 3 -45 6 -36 2 9 16 18 31 20 23 2 27 8 27 33 0 27
-4 30 -32 33 l-33 3 1 -53z m54 17 c0 -13 -8 -21 -22 -23 -19 -3 -23 1 -23 23
0 22 4 26 23 23 14 -2 22 -10 22 -23z"/>
<path d="M738 135 c2 -19 6 -35 8 -35 2 0 4 16 4 35 0 19 -4 35 -8 35 -4 0 -6
-16 -4 -35z"/>
<path d="M770 160 c0 -5 5 -10 10 -10 6 0 10 5 10 10 0 6 -4 10 -10 10 -5 0
-10 -4 -10 -10z"/>
<path d="M810 135 c0 -19 5 -35 10 -35 6 0 10 16 8 35 -1 19 -6 35 -10 35 -4
0 -8 -16 -8 -35z"/>
<path d="M850 135 c0 -19 5 -35 10 -35 6 0 10 14 10 30 0 20 5 30 15 30 10 0
15 -10 15 -30 0 -16 5 -30 10 -30 6 0 10 14 10 30 0 20 5 30 15 30 10 0 15
-10 15 -31 0 -16 4 -28 9 -25 5 4 8 14 6 24 -2 9 -4 23 -4 30 -1 8 -19 12 -56
12 l-55 0 0 -35z"/>
<path d="M994 156 c-12 -31 1 -51 31 -53 20 -1 23 0 8 4 -13 2 -23 8 -23 13 0
5 10 11 23 13 l22 4 -22 2 c-25 1 -31 16 -10 24 7 3 5 6 -6 6 -10 1 -20 -5
-23 -13z"/>
<path d="M1094 155 c-8 -19 3 -35 26 -35 19 0 34 25 24 41 -8 14 -44 10 -50
-6z"/>
</g>
</svg>
